<svg xmlns="http://www.w3.org/2000/svg" viewBox="0 0 434 432"><defs><style>.cls-1{fill:#ed99a0;}.cls-2{fill:#7d5393;}.cls-3{fill:#1791c2;}.cls-4,.cls-5{fill:none;stroke:#000;stroke-miterlimit:10;}.cls-5{stroke-linecap:round;}</style></defs><g id="Layer_2" data-name="Layer 2"><g id="Layer_1-2" data-name="Layer 1"><path d="M325.5.5a108,108,0,0,1,0,216h-18l54,215h-36l-72-287-36,143.42-36-143.75L217.5.5Zm72,108a72,72,0,0,0-72-72h-63l36,144h27A72,72,0,0,0,397.5,108.5Z"/><polygon class="cls-1" points="253.5 144.5 325.5 431.5 253.5 431.5 217.52 287.92 253.5 144.5"/><polygon points="217.52 287.92 253.5 431.5 217.5 431.5 199.5 359.75 217.52 287.92"/><polygon class="cls-2" points="181.5 144.17 217.52 287.92 199.5 359.75 163.47 216.13 181.5 144.17"/><polygon points="163.47 216.13 199.5 359.75 181.5 431.5 109.5 431.5 163.47 216.13"/><polygon points="145.5 0.5 181.5 144.17 163.47 216.13 145.5 144.5 72.5 431.5 0.5 431.5 109.5 0.5 145.5 0.5"/><polygon class="cls-3" points="145.5 144.5 163.47 216.13 109.5 431.5 72.5 431.5 145.5 144.5"/><line class="cls-4" x1="109.5" y1="431.5" x2="72.5" y2="431.5"/><line class="cls-4" x1="253.5" y1="431.5" x2="325.5" y2="431.5"/><line class="cls-5" x1="0.5" y1="431.5" x2="109.5" y2="0.5"/><line class="cls-5" x1="145.5" y1="0.5" x2="109.5" y2="0.5"/><line class="cls-5" x1="145.5" y1="144.5" x2="72.5" y2="431.5"/><line class="cls-5" x1="109.5" y1="431.5" x2="181.5" y2="431.5"/><polyline class="cls-5" points="217.5 431.5 199.5 359.75 163.47 216.13 145.5 144.5"/><polyline class="cls-5" points="109.5 431.5 163.47 216.13 181.5 144.17 217.5 0.5"/><polyline class="cls-5" points="181.5 431.5 199.5 359.75 217.52 287.92 253.5 144.5"/><line class="cls-5" x1="217.5" y1="431.5" x2="253.5" y2="431.5"/><line class="cls-5" x1="253.5" y1="144.5" x2="325.5" y2="431.5"/><line class="cls-5" x1="217.5" y1="0.5" x2="325.5" y2="0.5"/><line class="cls-5" x1="361.5" y1="431.5" x2="307.5" y2="216.5"/><path class="cls-5" d="M433.5,108.5A107.93,107.93,0,0,0,325.5.5"/><path class="cls-5" d="M433.5,108.5a107.93,107.93,0,0,1-108,108"/><line class="cls-5" x1="325.5" y1="216.5" x2="307.5" y2="216.5"/><line class="cls-5" x1="325.5" y1="180.5" x2="298.5" y2="180.5"/><line class="cls-5" x1="325.5" y1="36.5" x2="262.5" y2="36.5"/><line class="cls-5" x1="262.5" y1="36.5" x2="298.5" y2="180.5"/><path class="cls-5" d="M397.5,108.5a72,72,0,0,0-72-72"/><path class="cls-5" d="M397.5,108.5a72,72,0,0,1-72,72"/><line class="cls-5" x1="325.5" y1="431.5" x2="361.5" y2="431.5"/><line class="cls-5" x1="0.5" y1="431.5" x2="72.5" y2="431.5"/></g></g></svg>