<svg xmlns="http://www.w3.org/2000/svg" viewBox="0 0 455.03 451"><defs><style>.cls-1,.cls-2,.cls-6,.cls-7,.cls-8{fill:none;}.cls-1,.cls-2{stroke:#fff;stroke-width:10px;}.cls-1,.cls-2,.cls-7,.cls-8{stroke-linecap:round;}.cls-1,.cls-6,.cls-7{stroke-miterlimit:10;}.cls-2,.cls-8{stroke-linejoin:round;}.cls-3{fill:#ed99a0;}.cls-4{fill:#7d5393;}.cls-5{fill:#1791c2;}.cls-6,.cls-7,.cls-8{stroke:#000;}</style></defs><g id="Layer_2" data-name="Layer 2"><g id="Layer_1-2" data-name="Layer 1"><line class="cls-1" x1="205.01" y1="371.22" x2="224" y2="446"/><line class="cls-1" x1="216" y1="371" x2="197" y2="446"/><line class="cls-2" x1="314.95" y1="189.89" x2="278.95" y2="45.89"/><line class="cls-2" x1="337" y1="185" x2="310" y2="185"/><line class="cls-2" x1="337" y1="52" x2="274" y2="52"/><path class="cls-2" d="M403,119c0-40-33-67-66-67"/><path class="cls-2" d="M403,119c0,29-22,66-66,66"/><path class="cls-2" d="M450,118.54C450,176,407,232,329,232"/><path class="cls-2" d="M450,119C450,62,406,5,333,5"/><line class="cls-1" x1="379" y1="446" x2="323" y2="224"/><line class="cls-2" x1="225" y1="5" x2="333" y2="5"/><line class="cls-2" x1="5" y1="446" x2="117" y2="5"/><line class="cls-2" x1="225" y1="5" x2="187" y2="154"/><line class="cls-2" x1="160" y1="5" x2="196" y2="146"/><path d="M336.5,10.5a108,108,0,0,1,0,216h-18l54,215h-36l-72-287-36,143.42-36-143.75,36-143.67Zm72,108a72,72,0,0,0-72-72h-63l36,144h27A72,72,0,0,0,408.5,118.5Z"/><polygon class="cls-3" points="264.5 154.5 336.5 441.5 264.5 441.5 228.52 297.92 264.5 154.5"/><polygon points="228.52 297.92 264.5 441.5 228.5 441.5 210.5 369.75 228.52 297.92"/><polygon class="cls-4" points="192.5 154.17 228.52 297.92 210.5 369.75 174.47 226.13 192.5 154.17"/><polygon points="174.47 226.13 210.5 369.75 192.5 441.5 120.5 441.5 174.47 226.13"/><polygon points="156.5 10.5 192.5 154.17 174.47 226.13 156.5 154.5 83.5 441.5 11.5 441.5 120.5 10.5 156.5 10.5"/><polygon class="cls-5" points="156.5 154.5 174.47 226.13 120.5 441.5 83.5 441.5 156.5 154.5"/><line class="cls-6" x1="120.5" y1="441.5" x2="83.5" y2="441.5"/><line class="cls-6" x1="264.5" y1="441.5" x2="336.5" y2="441.5"/><line class="cls-7" x1="11.5" y1="441.5" x2="120.5" y2="10.5"/><line class="cls-8" x1="156.5" y1="10.5" x2="120.5" y2="10.5"/><line class="cls-7" x1="156.5" y1="154.5" x2="83.5" y2="441.5"/><line class="cls-7" x1="120.5" y1="441.5" x2="192.5" y2="441.5"/><polyline class="cls-7" points="228.5 441.5 210.5 369.75 174.47 226.13 156.5 154.5"/><polyline class="cls-7" points="120.5 441.5 174.47 226.13 192.5 154.17 228.5 10.5"/><polyline class="cls-7" points="192.5 441.5 210.5 369.75 228.52 297.92 264.5 154.5"/><line class="cls-7" x1="228.5" y1="441.5" x2="264.5" y2="441.5"/><line class="cls-7" x1="264.5" y1="154.5" x2="336.5" y2="441.5"/><polyline class="cls-6" points="264.5 441.5 228.52 297.92 192.5 154.17 156.5 10.5"/><line class="cls-7" x1="228.5" y1="10.5" x2="336.5" y2="10.5"/><line class="cls-7" x1="372.5" y1="441.5" x2="318.5" y2="226.5"/><path class="cls-7" d="M444.5,118.5a107.93,107.93,0,0,0-108-108"/><path class="cls-7" d="M444.5,118.5a107.93,107.93,0,0,1-108,108"/><line class="cls-7" x1="336.5" y1="226.5" x2="318.5" y2="226.5"/><line class="cls-7" x1="336.5" y1="190.5" x2="309.5" y2="190.5"/><line class="cls-7" x1="336.5" y1="46.5" x2="273.5" y2="46.5"/><line class="cls-7" x1="309.5" y1="190.5" x2="273.5" y2="46.5"/><path class="cls-7" d="M408.5,118.5a72,72,0,0,0-72-72"/><path class="cls-7" d="M408.5,118.5a72,72,0,0,1-72,72"/><line class="cls-7" x1="336.5" y1="441.5" x2="372.5" y2="441.5"/><line class="cls-7" x1="11.5" y1="441.5" x2="83.5" y2="441.5"/><line class="cls-2" x1="160" y1="5" x2="117" y2="5"/><line class="cls-1" x1="5" y1="446" x2="197" y2="446"/><line class="cls-1" x1="224" y1="446" x2="379" y2="446"/></g></g></svg>