<svg xmlns="http://www.w3.org/2000/svg" viewBox="0 0 466.16 460.5"><defs><style>.cls-1,.cls-2,.cls-6,.cls-7,.cls-8{fill:none;}.cls-1,.cls-2{stroke:#fff;stroke-width:15px;}.cls-1,.cls-2,.cls-7,.cls-8{stroke-linecap:round;}.cls-1,.cls-8{stroke-linejoin:round;}.cls-2,.cls-6,.cls-7{stroke-miterlimit:10;}.cls-3{fill:#ed99a0;}.cls-4{fill:#7d5393;}.cls-5{fill:#1791c2;}.cls-6,.cls-7,.cls-8{stroke:#000;}</style></defs><g id="Layer_2" data-name="Layer 2"><g id="Layer_1-2" data-name="Layer 1"><line class="cls-1" x1="322.95" y1="192.39" x2="286.95" y2="48.39"/><line class="cls-2" x1="209.01" y1="375.72" x2="228.5" y2="453"/><line class="cls-2" x1="224" y1="375.5" x2="203.5" y2="453"/><line class="cls-1" x1="343" y1="187.5" x2="316" y2="187.5"/><line class="cls-1" x1="343" y1="58.5" x2="280" y2="58.5"/><path class="cls-1" d="M406.49,123.5c0-35.33-28-65-63.49-65"/><path class="cls-1" d="M406.49,123.5c.84,30.88-26.24,64-63.49,64"/><path class="cls-1" d="M458.66,121.86c0,56.07-40.62,117.11-124,117.11"/><path class="cls-1" d="M458.66,121.86C458.66,60.76,411.34,7.5,339,7.5"/><line class="cls-2" x1="388.5" y1="453" x2="332" y2="228.5"/><line class="cls-1" x1="227.97" y1="7.5" x2="339" y2="7.5"/><line class="cls-1" x1="7.5" y1="453" x2="120.2" y2="7.5"/><line class="cls-1" x1="227.97" y1="7.5" x2="190.61" y2="157.95"/><line class="cls-1" x1="168.96" y1="7.5" x2="204.45" y2="150.03"/><path d="M342.5,15a108,108,0,0,1,0,216h-18l54,215h-36l-72-287-36,143.42-36-143.75L234.5,15Zm72,108a72,72,0,0,0-72-72h-63l36,144h27A72,72,0,0,0,414.5,123Z"/><polygon class="cls-3" points="270.5 159 342.5 446 270.5 446 234.52 302.42 270.5 159"/><polygon points="234.52 302.42 270.5 446 234.5 446 216.5 374.25 234.52 302.42"/><polygon class="cls-4" points="198.5 158.67 234.52 302.42 216.5 374.25 180.47 230.63 198.5 158.67"/><polygon points="180.47 230.63 216.5 374.25 198.5 446 126.5 446 180.47 230.63"/><polygon points="162.5 15 198.5 158.67 180.47 230.63 162.5 159 89.5 446 17.5 446 126.5 15 162.5 15"/><polygon class="cls-5" points="162.5 159 180.47 230.63 126.5 446 89.5 446 162.5 159"/><line class="cls-6" x1="126.5" y1="446" x2="89.5" y2="446"/><line class="cls-6" x1="270.5" y1="446" x2="342.5" y2="446"/><line class="cls-7" x1="17.5" y1="446" x2="126.5" y2="15"/><line class="cls-8" x1="162.5" y1="15" x2="126.5" y2="15"/><line class="cls-7" x1="162.5" y1="159" x2="89.5" y2="446"/><line class="cls-7" x1="126.5" y1="446" x2="198.5" y2="446"/><polyline class="cls-7" points="234.5 446 216.5 374.25 180.47 230.63 162.5 159"/><polyline class="cls-7" points="126.5 446 180.47 230.63 198.5 158.67 234.5 15"/><polyline class="cls-7" points="198.5 446 216.5 374.25 234.52 302.42 270.5 159"/><line class="cls-7" x1="234.5" y1="446" x2="270.5" y2="446"/><line class="cls-7" x1="270.5" y1="159" x2="342.5" y2="446"/><polyline class="cls-6" points="270.5 446 234.52 302.42 198.5 158.67 162.5 15"/><line class="cls-7" x1="234.5" y1="15" x2="342.5" y2="15"/><line class="cls-7" x1="378.5" y1="446" x2="324.5" y2="231"/><path class="cls-7" d="M450.5,123a107.93,107.93,0,0,0-108-108"/><path class="cls-7" d="M450.5,123a107.93,107.93,0,0,1-108,108"/><line class="cls-7" x1="342.5" y1="231" x2="324.5" y2="231"/><line class="cls-7" x1="342.5" y1="195" x2="315.5" y2="195"/><line class="cls-7" x1="342.5" y1="51" x2="279.5" y2="51"/><line class="cls-7" x1="315.5" y1="195" x2="279.5" y2="51"/><path class="cls-7" d="M414.5,123a72,72,0,0,0-72-72"/><path class="cls-7" d="M414.5,123a72,72,0,0,1-72,72"/><line class="cls-7" x1="342.5" y1="446" x2="378.5" y2="446"/><line class="cls-7" x1="17.5" y1="446" x2="89.5" y2="446"/><line class="cls-1" x1="168.96" y1="7.5" x2="120.2" y2="7.5"/><line class="cls-2" x1="7.5" y1="453" x2="203.5" y2="453"/><line class="cls-2" x1="228.5" y1="453" x2="388.5" y2="453"/></g></g></svg>